<svg width="114" height="58" viewBox="0 0 167 88" fill="none" xmlns="http://www.w3.org/2000/svg">
<path d="M1.31836 31.748L6.98242 29.8438C7.89388 31.4714 9.21224 32.806 10.9375 33.8477C12.6628 34.8568 14.5671 35.3613 16.6504 35.3613C18.7988 35.3613 20.5241 34.8405 21.8262 33.7988C23.1283 32.7572 23.7793 31.4062 23.7793 29.7461C23.7793 27.9883 23.0794 26.6211 21.6797 25.6445C20.3125 24.668 18.2943 23.724 15.625 22.8125C11.8164 21.543 9.24479 20.5339 7.91016 19.7852C4.42708 17.7995 2.68555 14.9186 2.68555 11.1426C2.68555 7.95247 3.9388 5.38086 6.44531 3.42773C8.95182 1.47461 12.2233 0.498047 16.2598 0.498047C19.5801 0.498047 22.4121 1.2793 24.7559 2.8418C27.1322 4.37174 28.8574 6.34115 29.9316 8.75L24.5117 10.5566C22.4284 7.5293 19.6615 6.01562 16.2109 6.01562C14.0951 6.01562 12.4186 6.48763 11.1816 7.43164C9.94466 8.37565 9.32617 9.61263 9.32617 11.1426C9.32617 11.5983 9.375 12.0378 9.47266 12.4609C9.57031 12.8516 9.76562 13.2259 10.0586 13.584C10.3516 13.9421 10.612 14.2513 10.8398 14.5117C11.0677 14.7721 11.4421 15.0488 11.9629 15.3418C12.4837 15.6348 12.8906 15.8626 13.1836 16.0254C13.5091 16.1882 14.0299 16.3997 14.7461 16.6602C15.4622 16.9206 15.9668 17.0996 16.2598 17.1973C16.5853 17.2949 17.1712 17.4902 18.0176 17.7832C18.8639 18.0436 19.4336 18.2227 19.7266 18.3203C21.224 18.8086 22.5423 19.3294 23.6816 19.8828C24.821 20.4362 25.9277 21.1523 27.002 22.0312C28.1087 22.8776 28.9551 23.9355 29.541 25.2051C30.127 26.4746 30.4199 27.9069 30.4199 29.502C30.4199 33.1152 29.1178 35.9147 26.5137 37.9004C23.9421 39.8861 20.6055 40.8789 16.5039 40.8789C12.9557 40.8789 9.84701 40.0651 7.17773 38.4375C4.50846 36.7773 2.55534 34.5475 1.31836 31.748ZM32.4844 20.7129C32.4844 14.6582 33.998 9.77539 37.0254 6.06445C40.0527 2.35352 44.0729 0.498047 49.0859 0.498047C54.099 0.498047 58.1029 2.35352 61.0977 6.06445C64.125 9.74284 65.6387 14.6257 65.6387 20.7129C65.6387 26.8001 64.125 31.6829 61.0977 35.3613C58.0703 39.0397 54.0664 40.8789 49.0859 40.8789C44.0729 40.8789 40.0527 39.0397 37.0254 35.3613C33.998 31.6829 32.4844 26.8001 32.4844 20.7129ZM39.125 20.7129C39.125 25.2376 40.0039 28.8184 41.7617 31.4551C43.5521 34.0592 45.9935 35.3613 49.0859 35.3613C52.1458 35.3613 54.5547 34.0592 56.3125 31.4551C58.1029 28.8509 58.998 25.2702 58.998 20.7129C58.998 16.2207 58.1191 12.6562 56.3613 10.0195C54.6361 7.35026 52.2109 6.01562 49.0859 6.01562C45.9935 6.01562 43.5521 7.35026 41.7617 10.0195C40.0039 12.6562 39.125 16.2207 39.125 20.7129ZM70.5352 40V1.37695H76.9805V34.5312H94.4609V40H70.5352ZM106.096 25.2539H117.619L114.348 15.2441C114.12 14.528 113.859 13.7305 113.566 12.8516C113.306 11.9727 113.013 11.0124 112.688 9.9707C112.395 8.89648 112.167 8.09896 112.004 7.57812H111.711C111.613 7.90365 110.832 10.459 109.367 15.2441L106.096 25.2539ZM94.377 40L108.342 1.37695H115.422L129.338 40H122.502L119.328 30.4297H104.387L101.213 40H94.377ZM138.434 19.1016H146.539C148.72 19.1016 150.396 18.5645 151.568 17.4902C152.74 16.416 153.326 14.8698 153.326 12.8516C153.326 11.0612 152.724 9.62891 151.52 8.55469C150.315 7.44792 148.606 6.89453 146.393 6.89453H138.434V19.1016ZM131.988 40V1.37695H147.613C151.585 1.37695 154.628 2.41862 156.744 4.50195C158.893 6.58529 159.967 9.18945 159.967 12.3145C159.967 14.9512 159.381 17.0996 158.209 18.7598C157.037 20.4199 155.686 21.543 154.156 22.1289C155.393 22.9753 156.272 23.8704 156.793 24.8145C157.314 25.7585 157.753 27.1908 158.111 29.1113C158.893 32.9525 160.292 36.582 162.311 40H155.133C153.538 37.2982 152.285 33.8314 151.373 29.5996C151.015 27.9395 150.478 26.6862 149.762 25.8398C149.078 24.9935 147.988 24.5703 146.49 24.5703H138.434V40H131.988ZM4.3457 85V46.377H10.791V85H4.3457ZM24.3301 64.1016H32.4355C34.6165 64.1016 36.293 63.5645 37.4648 62.4902C38.6367 61.416 39.2227 59.8698 39.2227 57.8516C39.2227 56.0612 38.6204 54.6289 37.416 53.5547C36.2116 52.4479 34.5026 51.8945 32.2891 51.8945H24.3301V64.1016ZM17.8848 85V46.377H33.5098C37.4811 46.377 40.5247 47.4186 42.6406 49.502C44.7891 51.5853 45.8633 54.1895 45.8633 57.3145C45.8633 59.9512 45.2773 62.0996 44.1055 63.7598C42.9336 65.4199 41.5827 66.543 40.0527 67.1289C41.2897 67.9753 42.1686 68.8704 42.6895 69.8145C43.2103 70.7585 43.6497 72.1908 44.0078 74.1113C44.7891 77.9525 46.1888 81.582 48.207 85H41.0293C39.4342 82.2982 38.181 78.8314 37.2695 74.5996C36.9115 72.9395 36.3743 71.6862 35.6582 70.8398C34.9746 69.9935 33.8841 69.5703 32.3867 69.5703H24.3301V85H17.8848ZM94.2715 85V46.377H101.01L112.68 67.6172L116.977 75.4297H117.221C116.732 72.0117 116.488 68.3008 116.488 64.2969V46.377H122.934V85H116.195L104.525 64.1504L100.229 56.0938H99.9844C100.473 59.9023 100.717 63.6133 100.717 67.2266V85H94.2715Z" fill="#15171A"/>
<path d="M69 52.1052C61.3262 52.1052 55.1053 58.3262 55.1053 65.9999C55.1053 73.6737 61.3262 79.8947 69 79.8947C76.6738 79.8947 82.8947 73.6737 82.8947 65.9999C82.8947 58.3262 76.6738 52.1052 69 52.1052ZM69 71.7894V67.7367H64.3684L69 60.2105V64.2631H73.6316L69 71.7894Z" fill="#FBE547"/>
<path d="M51.7178 64.2631H47V67.7367H51.7178C51.6611 67.1654 51.6315 66.5861 51.6315 65.9999C51.6315 65.4136 51.6611 64.8344 51.7178 64.2631Z" fill="#FBE547"/>
<path d="M67.2631 44V48.7178C67.8344 48.6611 68.4137 48.6315 69 48.6315C69.5863 48.6315 70.1656 48.6611 70.7369 48.7178V44H67.2631Z" fill="#FBE547"/>
<path d="M54.6717 49.2156L52.2155 51.6718L55.5522 55.0085C56.2872 54.1104 57.1103 53.2872 58.0085 52.5522L54.6717 49.2156Z" fill="#FBE547"/>
<path d="M83.3283 49.2156L79.9916 52.5523C80.8898 53.2873 81.7128 54.1105 82.4478 55.0085L85.7845 51.6718L83.3283 49.2156Z" fill="#FBE547"/>
<path d="M82.4477 76.9916C81.7127 77.8896 80.8897 78.7128 79.9915 79.4478L83.3282 82.7845L85.7844 80.3283L82.4477 76.9916Z" fill="#FBE547"/>
<path d="M86.2822 64.2631C86.3389 64.8344 86.3684 65.4137 86.3684 65.9999C86.3684 66.5862 86.3389 67.1655 86.2822 67.7368H91V64.2631H86.2822V64.2631Z" fill="#FBE547"/>
<path d="M55.5522 76.9916L52.2155 80.3283L54.6718 82.7845L58.0085 79.4478C57.1103 78.7127 56.2872 77.8896 55.5522 76.9916Z" fill="#FBE547"/>
<path d="M69 83.3684C68.4137 83.3684 67.8344 83.3388 67.2631 83.2821V88H70.7368V83.2822C70.1656 83.3389 69.5863 83.3684 69 83.3684Z" fill="#FBE547"/>
</svg>
